<svg id="password" xmlns="http://www.w3.org/2000/svg" width="48" height="48" viewBox="0 0 48 48">
  <path id="Контур_12837" data-name="Контур 12837" d="M30.975,2A13.722,13.722,0,0,0,17.842,19.708L2,35.55V44.7h9.15L26.992,28.858A13.725,13.725,0,1,0,30.975,2Zm0,24.4a10.694,10.694,0,0,1-3.1-.461l-1.749-.53L24.835,26.7l-4.851,4.851-2.1-2.1-2.156,2.157,2.1,2.1-2.418,2.419-2.1-2.1L11.15,36.182l2.1,2.1L9.887,41.65H5.05V36.813L20,21.865l1.292-1.292-.53-1.749A10.675,10.675,0,1,1,30.975,26.4Z" transform="translate(0.621 0.621)" fill="#ddd"/>
  <ellipse id="Эллипс_51" data-name="Эллипс 51" cx="2.5" cy="3" rx="2.5" ry="3" transform="translate(30.216 11.667)" fill="#ddd"/>
  <rect id="_Transparent_Rectangle_" data-name="&lt;Transparent Rectangle&gt;" width="48" height="48" fill="none"/>
</svg>
