<svg id="document--signed" xmlns="http://www.w3.org/2000/svg" width="48" height="48" viewBox="0 0 48 48">
  <path id="Контур_12844" data-name="Контур 12844" d="M21.649,37.6H15V30.947l7.582-7.583a6.939,6.939,0,0,1-.051-.832,7.532,7.532,0,1,1,6.7,7.481Zm-3.636-3.013H20.4l7.842-7.842.813.186a4.572,4.572,0,1,0-3.388-3.387l.186.812L18.013,32.2Z" transform="translate(7.595 7.594)" fill="#ddd"/>
  <ellipse id="Эллипс_55" data-name="Эллипс 55" cx="1.5" cy="1" rx="1.5" ry="1" transform="translate(36 29)" fill="#ddd"/>
  <rect id="Прямоугольник_303" data-name="Прямоугольник 303" width="18" height="3" transform="translate(12 9)" fill="#ddd"/>
  <rect id="Прямоугольник_304" data-name="Прямоугольник 304" width="18" height="3" transform="translate(12 15)" fill="#ddd"/>
  <rect id="Прямоугольник_305" data-name="Прямоугольник 305" width="9" height="3" transform="translate(12 21)" fill="#ddd"/>
  <rect id="Прямоугольник_306" data-name="Прямоугольник 306" width="6" height="3" transform="translate(12 36)" fill="#ddd"/>
  <path id="Контур_12845" data-name="Контур 12845" d="M16.051,44.178H7.013A3.016,3.016,0,0,1,4,41.165V5.013A3.016,3.016,0,0,1,7.013,2h24.1a3.016,3.016,0,0,1,3.013,3.013V18.57H31.114V5.013H7.013V41.165h9.038Z" transform="translate(2.025 1.013)" fill="#ddd"/>
  <rect id="_Transparent_Rectangle_" data-name="&lt;Transparent Rectangle&gt;" width="48" height="48" fill="none"/>
</svg>
