<svg id="user--avatar--filled--alt" xmlns="http://www.w3.org/2000/svg" width="48" height="48" viewBox="0 0 48 48">
  <path id="Контур_12834" data-name="Контур 12834" d="M18.4,8a7.4,7.4,0,1,0,7.4,7.4A7.4,7.4,0,0,0,18.4,8Z" transform="translate(5.792 4.213)" fill="#ddd"/>
  <path id="Контур_12835" data-name="Контур 12835" d="M23.228,2A21.228,21.228,0,1,0,44.457,23.228,21.228,21.228,0,0,0,23.228,2ZM35.347,36.763a7.584,7.584,0,0,0-7.57-7.469h-9.1a7.584,7.584,0,0,0-7.57,7.469,18.2,18.2,0,1,1,24.238,0Z" transform="translate(0.961 0.961)" fill="#ddd"/>
  <rect id="_Transparent_Rectangle_" data-name="&lt;Transparent Rectangle&gt;" width="48" height="48" fill="none"/>
</svg>
