<svg id="email" xmlns="http://www.w3.org/2000/svg" width="48" height="48" viewBox="0 0 48 48">
  <path id="Контур_12836" data-name="Контур 12836" d="M41.116,6H5.009A3.023,3.023,0,0,0,2,9.038v24.3a3.023,3.023,0,0,0,3.009,3.038H41.116a3.023,3.023,0,0,0,3.009-3.038V9.038A3.023,3.023,0,0,0,41.116,6Zm-3.31,3.037-14.744,10.3L8.319,9.038Zm-32.8,24.3V10.42L22.2,22.433a1.493,1.493,0,0,0,1.715,0l17.2-12.013V33.338Z" transform="translate(0.938 2.812)" fill="#ddd"/>
  <rect id="_Transparent_Rectangle_" data-name="&lt;Transparent Rectangle&gt;" width="48" height="48" fill="none"/>
</svg>
