<svg id="Icon_-_Calendar_16" data-name="Icon - Calendar / 16" xmlns="http://www.w3.org/2000/svg" width="16" height="16" viewBox="0 0 16 16">
  <path id="Контур_12736" data-name="Контур 12736" d="M15.039,3H13.032V2h-1V3H8.014V2h-1V3H5a1.006,1.006,0,0,0-1,1V14.042a1.006,1.006,0,0,0,1,1H15.039a1.006,1.006,0,0,0,1-1V4.007A1.006,1.006,0,0,0,15.039,3Zm0,11.039H5V7.018H15.039Zm0-8.028H5V4.007H7.011v1h1v-1h4.014v1h1v-1h2.007Z" transform="translate(-1.992 -0.996)"/>
  <rect id="_Transparent_Rectangle_" width="16" height="16" fill="none"/>
</svg>
