<svg xmlns="http://www.w3.org/2000/svg" width="17" height="15" viewBox="0 0 17 15">
  <g id="noun_cart_1570216" transform="translate(-4 -962.362)">
    <path id="Контур_18" data-name="Контур 18" d="M4.555,962.362a.563.563,0,0,0,0,1.125H6.766c.917,2.306,1.821,4.616,2.731,6.926l-.837,2.045a.58.58,0,0,0,.051.53.562.562,0,0,0,.463.25h9.239a.563.563,0,0,0,0-1.125H10.006l.479-1.16,8.9-.721a.573.573,0,0,0,.5-.434l1.109-4.875a.587.587,0,0,0-.543-.685H8.256l-.6-1.523a.569.569,0,0,0-.514-.352Zm4.146,3H19.747l-.86,3.785-8.425.68Zm2.321,8.25a1.875,1.875,0,1,0,1.848,1.875A1.87,1.87,0,0,0,11.022,973.612Zm5.544,0a1.875,1.875,0,1,0,1.848,1.875A1.87,1.87,0,0,0,16.566,973.612Zm-5.544,1.125a.75.75,0,1,1-.739.75A.736.736,0,0,1,11.022,974.737Zm5.544,0a.75.75,0,1,1-.739.75A.736.736,0,0,1,16.566,974.737Z" fill="#1a1a1a"/>
  </g>
</svg>
