<svg xmlns="http://www.w3.org/2000/svg" width="21.122" height="19" viewBox="0 0 21.122 19">
  <g id="noun_chat_4137481" transform="translate(-1.993 -3.403)">
    <path id="Контур_22" data-name="Контур 22" d="M22.257,22.369l-2.9-.965a.671.671,0,0,0-.5.038,7.577,7.577,0,0,1-4.8.694,7.485,7.485,0,0,1-4.156-2.3,9.606,9.606,0,0,0,1.4-.136,8.849,8.849,0,0,0,7.1-7.037,9,9,0,0,0-.528-5.114,7.552,7.552,0,0,1,4.292,10.6.638.638,0,0,0-.045.5l.965,2.9A.649.649,0,0,1,22.257,22.369Zm-5.174-9.956A7.548,7.548,0,0,1,6.252,17.686a.634.634,0,0,0-.5-.038l-2.9.965a.651.651,0,0,1-.822-.822l.965-2.9a.638.638,0,0,0-.045-.5,7.555,7.555,0,1,1,14.134-1.984Zm-6.268.219a.673.673,0,0,0-.671-.671H6.388a.671.671,0,1,0,0,1.343h3.756A.673.673,0,0,0,10.815,12.632Zm2.677-2.677a.673.673,0,0,0-.671-.671H6.388a.671.671,0,0,0,0,1.343h6.434A.673.673,0,0,0,13.493,9.955Z" transform="translate(0)" fill="#bfbfbf"/>
  </g>
</svg>
