<svg xmlns="http://www.w3.org/2000/svg" width="12.175" height="12.161" viewBox="0 0 12.175 12.161">
  <g id="noun_Close_340612" transform="translate(-21.003 -21.075)">
    <line id="Линия_9" data-name="Линия 9" x2="11" y2="11" transform="translate(21.178 22)" fill="#1a1a1a"/>
    <path id="Контур_12737" data-name="Контур 12737" d="M32.606,33.235a.63.63,0,0,1-.445-.185L21.244,22.134a.63.63,0,0,1,.89-.89L33.051,32.161a.63.63,0,0,1-.445,1.075Z" transform="translate(-0.057)" fill="#1a1a1a"/>
    <line id="Линия_10" data-name="Линия 10" y1="11" x2="11" transform="translate(21.178 22)" fill="#1a1a1a"/>
    <path id="Контур_12738" data-name="Контур 12738" d="M21.632,33.235a.63.63,0,0,1-.445-1.075L32.1,21.244a.63.63,0,0,1,.89.89L22.077,33.051A.63.63,0,0,1,21.632,33.235Z" transform="translate(0 0)" fill="#1a1a1a"/>
  </g>
</svg>
