<svg id="copy" xmlns="http://www.w3.org/2000/svg" width="16" height="16" viewBox="0 0 16 16">
  <path id="Контур_12785" data-name="Контур 12785" d="M18,9v9H9V9h9m0-1H9A1,1,0,0,0,8,9v9a1,1,0,0,0,1,1h9a1,1,0,0,0,1-1V9A1,1,0,0,0,18,8Z" transform="translate(-4 -4)"/>
  <path id="Контур_12786" data-name="Контур 12786" d="M3,10H2V3A1,1,0,0,1,3,2h7V3H3Z" transform="translate(-1 -1)"/>
  <rect id="_Transparent_Rectangle_" data-name="&lt;Transparent Rectangle&gt;" width="16" height="16" fill="none"/>
</svg>
