<svg id="delivery--parcel" xmlns="http://www.w3.org/2000/svg" width="24" height="24" viewBox="0 0 24 24">
  <path id="Контур_12749" data-name="Контур 12749" d="M24.112,7.218l-7.5-4.125a.75.75,0,0,0-.723,0l-7.5,4.125a.75.75,0,0,0,0,1.314L15.5,12.444v8.038L13.223,19.23,12.5,20.543l3.389,1.864a.749.749,0,0,0,.723,0l7.5-4.125a.75.75,0,0,0,.389-.657V7.875a.75.75,0,0,0-.388-.657ZM16.25,4.606l5.944,3.269L16.25,11.144,10.307,7.875ZM23,17.182l-6,3.3V12.444l6-3.3Z" transform="translate(-2 -0.75)"/>
  <rect id="Прямоугольник_174" data-name="Прямоугольник 174" width="6" height="1.5" transform="translate(7.5 12) rotate(180)"/>
  <rect id="Прямоугольник_175" data-name="Прямоугольник 175" width="6" height="1.5" transform="translate(9 18) rotate(180)"/>
  <rect id="Прямоугольник_176" data-name="Прямоугольник 176" width="6" height="1.5" transform="translate(10.5 15) rotate(180)"/>
  <rect id="_Transparent_Rectangle_" data-name="&lt;Transparent Rectangle&gt;" width="24" height="24" fill="none"/>
</svg>
