<svg id="document" xmlns="http://www.w3.org/2000/svg" width="16" height="16" viewBox="0 0 16 16">
  <path id="Контур_12744" data-name="Контур 12744" d="M15.85,5.65l-3.5-3.5A.454.454,0,0,0,12,2H7A1,1,0,0,0,6,3V15a1,1,0,0,0,1,1h8a1,1,0,0,0,1-1V6A.454.454,0,0,0,15.85,5.65ZM12,3.2,14.8,6H12ZM15,15H7V3h4V6a1,1,0,0,0,1,1h3Z" transform="translate(-3 -1)"/>
  <rect id="Прямоугольник_165" data-name="Прямоугольник 165" width="6" height="1" transform="translate(5 11)"/>
  <rect id="Прямоугольник_166" data-name="Прямоугольник 166" width="6" height="1" transform="translate(5 8)"/>
  <rect id="Прямоугольник_167" data-name="Прямоугольник 167" width="16" height="16" fill="none"/>
</svg>
