<svg id="view--filled" xmlns="http://www.w3.org/2000/svg" width="16" height="16" viewBox="0 0 16 16">
  <circle id="Эллипс_18" data-name="Эллипс 18" cx="2" cy="2" r="2" transform="translate(6 6)"/>
  <path id="Контур_12745" data-name="Контур 12745" d="M15.97,10.33A8.345,8.345,0,0,0,8.5,5a8.345,8.345,0,0,0-7.47,5.33.5.5,0,0,0,0,.34A8.345,8.345,0,0,0,8.5,16a8.345,8.345,0,0,0,7.47-5.33A.5.5,0,0,0,15.97,10.33ZM8.5,13.75a3.25,3.25,0,1,1,3.25-3.25A3.25,3.25,0,0,1,8.5,13.75Z" transform="translate(-0.5 -2.5)"/>
  <rect id="_Transparent_Rectangle_" data-name="&lt;Transparent Rectangle&gt;" width="16" height="16" fill="none"/>
</svg>
