<svg xmlns="http://www.w3.org/2000/svg" width="21" height="19.765" viewBox="0 0 21 19.765"><path d="M-2688.123-4537.152h0l4.634-2.873,4,.854,1.435,5.587-4.048,5.485-6.022,6.863-9.967-11.374.883-5.446,3.116-1.969,3.958.854,2.623,2.71" transform="translate(2699 4541)" fill="#48d739"/><path d="M16.573,967.4a5.332,5.332,0,0,0-3.961,1.784,6.489,6.489,0,0,0,0,8.594L20.9,986.9a.78.78,0,0,0,1.169,0l8.293-9.115a6.486,6.486,0,0,0,0-8.594,5.281,5.281,0,0,0-7.922,0l-.95,1.033-.95-1.042A5.332,5.332,0,0,0,16.573,967.4Zm0,1.66a3.788,3.788,0,0,1,2.8,1.3l1.531,1.687a.781.781,0,0,0,1.169,0l1.522-1.678a3.665,3.665,0,0,1,5.593,0,4.735,4.735,0,0,1,0,6.253q-3.851,4.233-7.7,8.461l-7.7-8.47a4.736,4.736,0,0,1,0-6.253,3.77,3.77,0,0,1,2.792-1.3Z" transform="translate(-10.985 -967.397)" fill="#48d739"/></svg>