<svg xmlns="http://www.w3.org/2000/svg" width="15" height="14" viewBox="0 0 15 14">
  <g id="noun_Heart_1742986" transform="translate(-10.985 -967.397)">
    <path id="Контур_21" data-name="Контур 21" d="M14.977,967.4a3.823,3.823,0,0,0-2.829,1.264,4.568,4.568,0,0,0,0,6.087l5.917,6.463a.561.561,0,0,0,.835,0l5.923-6.456a4.565,4.565,0,0,0,0-6.087,3.793,3.793,0,0,0-5.659,0l-.679.732-.679-.738A3.823,3.823,0,0,0,14.977,967.4Zm0,1.176a2.715,2.715,0,0,1,2,.92l1.093,1.195a.561.561,0,0,0,.835,0l1.087-1.189a2.632,2.632,0,0,1,3.995,0,3.333,3.333,0,0,1,0,4.429q-2.751,3-5.5,5.994l-5.5-6a3.334,3.334,0,0,1,0-4.429,2.7,2.7,0,0,1,1.994-.92Z" transform="translate(0 0)" fill="#1a1a1a"/>
  </g>
</svg>
