<svg xmlns="http://www.w3.org/2000/svg" width="19.697" height="19.252" viewBox="0 0 19.697 19.252">
  <path id="noun_Home_677005" d="M21.518,10.4l-9.15-7.785a.546.546,0,0,0-.707,0l-9.18,7.819a.545.545,0,1,0,.706.83l.072-.062v9.766a.545.545,0,0,0,.545.545H20.16a.545.545,0,0,0,.545-.545V11.141l.107.091a.545.545,0,0,0,.706-.831ZM14.163,20.39H9.8V14.03h4.361Zm5.452.034H15.254V13.485a.545.545,0,0,0-.545-.545H9.257a.545.545,0,0,0-.545.545v6.939H4.351V10.275l7.664-6.528,7.6,6.466Z" transform="translate(-2.151 -2.362)" fill="#1a1a1a" stroke="#707070" stroke-width="0.2"/>
</svg>
