<svg xmlns="http://www.w3.org/2000/svg" width="75" height="41" viewBox="0 0 75 41">
  <g id="Сгруппировать_13" data-name="Сгруппировать 13" transform="translate(86.187 759.156)">
    <g id="Сгруппировать_1" data-name="Сгруппировать 1" transform="translate(-86.187 -759.156)">
      <circle id="Эллипс_1" data-name="Эллипс 1" cx="5.841" cy="5.841" r="5.841" transform="translate(0 8.261) rotate(-45)" fill="#efe022" opacity="0.7"/>
      <circle id="Эллипс_2" data-name="Эллипс 2" cx="5.841" cy="5.841" r="5.841" transform="translate(0 16.243) rotate(-45)" fill="#9cc22a" opacity="0.7"/>
      <circle id="Эллипс_3" data-name="Эллипс 3" cx="5.841" cy="5.841" r="5.841" transform="translate(0 24.225) rotate(-45)" fill="#86c7ee" opacity="0.7"/>
      <circle id="Эллипс_4" data-name="Эллипс 4" cx="5.841" cy="5.841" r="5.841" transform="translate(0 32.739) rotate(-45)" fill="#ce65a3" opacity="0.7"/>
    </g>
    <path id="Контур_1" data-name="Контур 1" d="M227.892,5.625h-1.264V3.467h6.2a3.975,3.975,0,0,1,4.3,4.16,3.59,3.59,0,0,1-2.313,3.635V11.3a1.583,1.583,0,0,1,.68.7l1.361,2.663c.194.408.525.447.952.447h.253v2.158h-1.322c-1.03,0-1.477-.156-1.924-1.03l-1.788-3.48c-.292-.544-.564-.641-1.3-.641h-1.283v5.151h-2.547ZM232.46,9.94A1.922,1.922,0,0,0,234.5,7.763a1.89,1.89,0,0,0-2-2.138h-2.061V9.94Z" transform="translate(-293.048 -759.931)" fill="#030504"/>
    <path id="Контур_2" data-name="Контур 2" d="M387.932,50.467c2.838,0,4.393,2.08,4.393,4.7a6.5,6.5,0,0,1-.078.953h-6.843a2.838,2.838,0,0,0,2.994,2.624,5.016,5.016,0,0,0,2.838-1.089l.972,1.769a6.637,6.637,0,0,1-3.985,1.419,5.1,5.1,0,0,1-5.346-5.19A4.905,4.905,0,0,1,387.932,50.467Zm1.924,3.966a1.951,1.951,0,0,0-1.983-2.1,2.377,2.377,0,0,0-2.391,2.1Z" transform="translate(-437.262 -803.47)" fill="#030504"/>
    <path id="Контур_3" data-name="Контур 3" d="M524.265,54.394h.311v-.136c0-1.361-.564-1.886-1.827-1.886-.447,0-1.322.117-1.322.661v.525h-2.313v-1.05c0-1.827,2.624-2.041,3.577-2.041,3.382,0,4.354,1.691,4.354,3.946v3.693a.389.389,0,0,0,.428.428h.778v2.08h-2.235c-.914,0-1.244-.505-1.244-1.089V59.1h-.039a3.376,3.376,0,0,1-3.071,1.75,3.025,3.025,0,0,1-3.285-2.955C518.375,54.569,522.652,54.394,524.265,54.394Zm-1.944,4.568a2.534,2.534,0,0,0,2.274-2.6v-.272h-.447c-1.283,0-3.324.194-3.324,1.555A1.36,1.36,0,0,0,522.321,58.962Z" transform="translate(-562.33 -803.47)" fill="#030504"/>
    <path id="Контур_4" data-name="Контур 4" d="M660.616,7.122a3.2,3.2,0,0,1,2.877,1.205h.039a4.245,4.245,0,0,1-.039-.583V5.994a.381.381,0,0,0-.428-.428h-.758v-2.1h2.352c.914,0,1.3.408,1.3,1.322v9.972a.389.389,0,0,0,.428.428h.778v2.08h-2.274c-.894,0-1.244-.428-1.244-1.011a3.336,3.336,0,0,1,.019-.369h-.039a3.423,3.423,0,0,1-3.11,1.613c-2.683,0-4.393-2.119-4.393-5.19C656.125,9.163,657.991,7.122,660.616,7.122Zm.466,8.3c1.283,0,2.488-.933,2.488-3.13,0-1.536-.8-3.052-2.469-3.052-1.341,0-2.488,1.108-2.488,3.071C658.613,14.2,659.624,15.422,661.082,15.422Z" transform="translate(-689.598 -759.931)" fill="#030504"/>
    <path id="Контур_5" data-name="Контур 5" d="M804.226,65.383a1.77,1.77,0,0,0,1.633-1.264l.33-.758L802.9,55.916a.5.5,0,0,0-.544-.35h-.292v-2.1H803.7a1.238,1.238,0,0,1,1.322.933l1.924,4.957a9.718,9.718,0,0,1,.35,1.322h.039a11.982,11.982,0,0,1,.33-1.322l1.691-4.957a1.212,1.212,0,0,1,1.322-.933h1.672v2.1h-.292a.507.507,0,0,0-.564.35l-3.538,8.961a3.786,3.786,0,0,1-3.577,2.585,3.612,3.612,0,0,1-2.508-1.011l.933-1.75A2.135,2.135,0,0,0,804.226,65.383Z" transform="translate(-824.014 -806.27)" fill="#030504"/>
    <path id="Контур_6" data-name="Контур 6" d="M227.027,292.712h-1.283V291.6h1.3v-2.7h1.3v2.7h2.469v1.108h-2.469v4.976c0,2.294,1.458,2.585,2.216,2.585a2.273,2.273,0,0,0,.447-.039v1.186a3.916,3.916,0,0,1-.583.039c-1.108,0-3.4-.369-3.4-3.635Z" transform="translate(-292.215 -1024.135)" fill="#030504"/>
    <path id="Контур_7" data-name="Контур 7" d="M309.642,320.652a5.122,5.122,0,1,1-5.151,5.074A5.046,5.046,0,0,1,309.642,320.652Zm0,9.059a3.858,3.858,0,0,0,3.81-3.985,3.811,3.811,0,1,0-7.62,0A3.858,3.858,0,0,0,309.642,329.711Z" transform="translate(-364.914 -1053.417)" fill="#030504"/>
    <path id="Контур_8" data-name="Контур 8" d="M524.749,274.857h-1.264v-1.205H529.3a3.377,3.377,0,0,1,3.694,3.441,3.162,3.162,0,0,1-1.73,2.974v.039a3.334,3.334,0,0,1,2.274,3.383,3.752,3.752,0,0,1-4.082,3.83h-3.518c-.836,0-1.186-.35-1.186-1.186Zm4.549,4.724a2.231,2.231,0,0,0,2.294-2.391,2.174,2.174,0,0,0-2.333-2.333h-3.149v4.724Zm-2.76,6.532h2.916a2.486,2.486,0,0,0,2.683-2.663,2.556,2.556,0,0,0-2.683-2.7h-3.343v4.938A.381.381,0,0,0,526.537,286.113Z" transform="translate(-567.048 -1010.071)" fill="#030504"/>
    <path id="Контур_9" data-name="Контур 9" d="M669.477,325.227a.38.38,0,0,0-.428-.428h-.816v-1.147h1.38c.836,0,1.186.35,1.186,1.147v4.724c0,1.536.253,2.9,2.138,2.9,2.235,0,3.616-1.963,3.616-4.082v-4.685h1.322v8.2a.381.381,0,0,0,.428.428h.817v1.147h-1.361c-.816,0-1.186-.35-1.186-1.089v-.447a6.289,6.289,0,0,1,.039-.7h-.039a4.124,4.124,0,0,1-3.81,2.469c-2.313,0-3.285-1.244-3.285-3.791Z" transform="translate(-700.764 -1056.183)" fill="#030504"/>
    <path id="Контур_10" data-name="Контур 10" d="M813.983,336.56l.622-.952a2.128,2.128,0,0,0,1.458.719c.855,0,1.438-.7,1.808-1.594l.583-1.341-3.441-8.145a.628.628,0,0,0-.68-.447h-.194v-1.147h.6c.875,0,1.147.194,1.5,1.069l2.508,6.1c.194.486.35,1.05.35,1.05h.039a8.966,8.966,0,0,1,.331-1.05l2.41-6.1c.331-.875.622-1.069,1.516-1.069h.6V324.8H823.8a.616.616,0,0,0-.68.447L818.9,335.471a2.988,2.988,0,0,1-2.8,2.041A2.85,2.85,0,0,1,813.983,336.56Z" transform="translate(-835.181 -1056.183)" fill="#030504"/>
  </g>
</svg>
