<svg id="money" xmlns="http://www.w3.org/2000/svg" width="32" height="32" viewBox="0 0 32 32">
  <rect id="Прямоугольник_279" data-name="Прямоугольник 279" width="28" height="2" transform="translate(2 22)" fill="#bcbcbc"/>
  <rect id="Прямоугольник_280" data-name="Прямоугольник 280" width="28" height="2" transform="translate(2 26)" fill="#bcbcbc"/>
  <path id="Контур_12809" data-name="Контур 12809" d="M24,10a2,2,0,1,0,2,2A2,2,0,0,0,24,10Z" fill="#bcbcbc"/>
  <path id="Контур_12810" data-name="Контур 12810" d="M16,16a4,4,0,1,1,4-4,4,4,0,0,1-4,4Zm0-6a2,2,0,1,0,2,2,2,2,0,0,0-2-2Z" fill="#bcbcbc"/>
  <path id="Контур_12811" data-name="Контур 12811" d="M8,10a2,2,0,1,0,2,2A2,2,0,0,0,8,10Z" fill="#bcbcbc"/>
  <path id="Контур_12812" data-name="Контур 12812" d="M28,20H4a2.005,2.005,0,0,1-2-2V6A2.005,2.005,0,0,1,4,4H28a2.005,2.005,0,0,1,2,2V18a2,2,0,0,1-2,2ZM28,6H4V18H28Z" fill="#bcbcbc"/>
  <rect id="_Transparent_Rectangle_" data-name="&lt;Transparent Rectangle&gt;" width="32" height="32" fill="none"/>
</svg>
