<svg id="document--view" xmlns="http://www.w3.org/2000/svg" width="32" height="32" viewBox="0 0 32 32">
  <circle id="Эллипс_50" data-name="Эллипс 50" cx="2" cy="2" r="2" transform="translate(20 22)" fill="#bcbcbc"/>
  <path id="_inner_path_" data-name="&lt;inner path&gt;" d="M22,28a4,4,0,1,1,4-4,4,4,0,0,1-4,4Zm0-6a2,2,0,1,0,2,2A2,2,0,0,0,22,22Z" fill="none"/>
  <path id="Контур_12832" data-name="Контур 12832" d="M29.777,23.479A8.64,8.64,0,0,0,22,18a8.64,8.64,0,0,0-7.777,5.479L14,24l.223.521A8.64,8.64,0,0,0,22,30a8.64,8.64,0,0,0,7.777-5.479L30,24ZM22,28a4,4,0,1,1,4-4,4,4,0,0,1-4,4Z" fill="#bcbcbc"/>
  <path id="Контур_12833" data-name="Контур 12833" d="M12,28H8V4h8v6a2.006,2.006,0,0,0,2,2h6v4h2V10a.909.909,0,0,0-.3-.7l-7-7A.909.909,0,0,0,18,2H8A2.006,2.006,0,0,0,6,4V28a2.006,2.006,0,0,0,2,2h4ZM18,4.4,23.6,10H18Z" fill="#bcbcbc"/>
  <rect id="_Transparent_Rectangle_" data-name="&lt;Transparent Rectangle&gt;" width="32" height="32" fill="none"/>
</svg>
