<svg id="information" xmlns="http://www.w3.org/2000/svg" width="32" height="32" viewBox="0 0 32 32">
  <path id="Контур_12799" data-name="Контур 12799" d="M17,22V14H13v2h2v6H12v2h8V22Z" fill="#bcbcbc"/>
  <path id="Контур_12800" data-name="Контур 12800" d="M16,8a1.5,1.5,0,1,0,1.5,1.5A1.5,1.5,0,0,0,16,8Z" fill="#bcbcbc"/>
  <path id="Контур_12801" data-name="Контур 12801" d="M16,30A14,14,0,1,1,30,16,14,14,0,0,1,16,30ZM16,4A12,12,0,1,0,28,16,12,12,0,0,0,16,4Z" fill="#bcbcbc"/>
  <rect id="_Transparent_Rectangle_" data-name="&lt;Transparent Rectangle&gt;" width="32" height="32" fill="none"/>
</svg>
