<svg id="user--multiple" xmlns="http://www.w3.org/2000/svg" width="32" height="32" viewBox="0 0 32 32">
  <path id="Контур_12814" data-name="Контур 12814" d="M30,30H28V25a5.006,5.006,0,0,0-5-5V18a7.008,7.008,0,0,1,7,7Z" fill="#bcbcbc"/>
  <path id="Контур_12815" data-name="Контур 12815" d="M22,30H20V25a5.006,5.006,0,0,0-5-5H9a5.006,5.006,0,0,0-5,5v5H2V25a7.008,7.008,0,0,1,7-7h6a7.008,7.008,0,0,1,7,7Z" fill="#bcbcbc"/>
  <path id="Контур_12816" data-name="Контур 12816" d="M20,2V4a5,5,0,0,1,0,10v2A7,7,0,1,0,20,2Z" fill="#bcbcbc"/>
  <path id="Контур_12817" data-name="Контур 12817" d="M12,4A5,5,0,1,1,7,9a5,5,0,0,1,5-5m0-2a7,7,0,1,0,7,7A7,7,0,0,0,12,2Z" fill="#bcbcbc"/>
  <rect id="_Transparent_Rectangle_" data-name="&lt;Transparent Rectangle&gt;" width="32" height="32" fill="none"/>
</svg>
