<svg id="shopping--catalog" xmlns="http://www.w3.org/2000/svg" width="32" height="32" viewBox="0 0 32 32">
  <rect id="Прямоугольник_275" data-name="Прямоугольник 275" width="4" height="4" transform="translate(17 24)" fill="#bcbcbc"/>
  <rect id="Прямоугольник_276" data-name="Прямоугольник 276" width="4" height="4" transform="translate(24 24)" fill="#bcbcbc"/>
  <rect id="Прямоугольник_277" data-name="Прямоугольник 277" width="4" height="4" transform="translate(17 17)" fill="#bcbcbc"/>
  <rect id="Прямоугольник_278" data-name="Прямоугольник 278" width="4" height="4" transform="translate(24 17)" fill="#bcbcbc"/>
  <path id="Контур_12806" data-name="Контур 12806" d="M28,11H22V7a2.946,2.946,0,0,0-3-3H13a2.946,2.946,0,0,0-3,3v4H4a.945.945,0,0,0-1,1v.2L4.9,24.3a1.96,1.96,0,0,0,2,1.7H15V24H6.9L5.2,13H28ZM12,7a.945.945,0,0,1,1-1h6a.945.945,0,0,1,1,1v4H12Z" fill="#bcbcbc"/>
  <rect id="_Transparent_Rectangle_" width="32" height="32" fill="none"/>
</svg>
