<svg id="ticket" xmlns="http://www.w3.org/2000/svg" width="32" height="32" viewBox="0 0 32 32">
  <path id="Контур_12798" data-name="Контур 12798" d="M29,14a1,1,0,0,0,1-1V8a2,2,0,0,0-2-2H4A2,2,0,0,0,2,8v5a1,1,0,0,0,1,1,2,2,0,1,1,0,4,1,1,0,0,0-1,1v5a2,2,0,0,0,2,2H28a2,2,0,0,0,2-2V19a1,1,0,0,0-1-1,2,2,0,0,1,0-4Zm-1,5.87V24H21V21H19v3H4V19.87a4,4,0,0,0,0-7.74V8H19v3h2V8h7v4.13a4,4,0,0,0,0,7.74Z" fill="#bcbcbc"/>
  <rect id="Прямоугольник_270" data-name="Прямоугольник 270" width="2" height="6" transform="translate(19 13)" fill="#bcbcbc"/>
  <rect id="_Transparent_Rectangle_" data-name="&lt;Transparent Rectangle&gt;" width="32" height="32" fill="none"/>
</svg>
