<svg id="view--off" xmlns="http://www.w3.org/2000/svg" width="24" height="24" viewBox="0 0 24 24">
  <path id="Контур_12838" data-name="Контур 12838" d="M4.18,18.132l1.072-1.065a10.545,10.545,0,0,1-2.7-3.817,11.138,11.138,0,0,1,9.7-6.75,9.285,9.285,0,0,1,3,.54l1.162-1.17A11.04,11.04,0,0,0,12.25,5,12.518,12.518,0,0,0,1.045,12.995a.75.75,0,0,0,0,.51A12,12,0,0,0,4.18,18.133Z" transform="translate(-0.25 -1.25)"/>
  <path id="Контур_12839" data-name="Контур 12839" d="M11.5,14.3a3,3,0,0,1,2.775-2.775l1.357-1.365a4.5,4.5,0,0,0-5.5,5.5Z" transform="translate(-2.496 -2.503)"/>
  <path id="Контур_12840" data-name="Контур 12840" d="M23.7,12.245a12.3,12.3,0,0,0-4.3-5.58L23,3.058,21.943,2,2,21.943,3.058,23l3.825-3.825A11.468,11.468,0,0,0,12.5,20.75a12.517,12.517,0,0,0,11.2-7.995A.75.75,0,0,0,23.7,12.245Zm-8.2.255A3,3,0,0,1,11,15.08L15.08,11a3,3,0,0,1,.42,1.5Zm-3,6.75A9.787,9.787,0,0,1,8,18.065L9.9,16.16A4.5,4.5,0,0,0,16.167,9.9L18.32,7.745A10.9,10.9,0,0,1,22.2,12.5,11.138,11.138,0,0,1,12.5,19.25Z" transform="translate(-0.5 -0.5)"/>
  <rect id="_Transparent_Rectangle_" data-name="&lt;Transparent Rectangle&gt;" width="24" height="24" fill="none"/>
</svg>
