<svg xmlns="http://www.w3.org/2000/svg" width="11.503" height="12.138" viewBox="0 0 11.503 12.138">
  <g id="noun_User_1820127" transform="translate(-9 -2)">
    <path id="Контур_19" data-name="Контур 19" d="M9,10.639s1.432-2.217,2.679-2.4a1.791,1.791,0,0,1,1.663.323,2.577,2.577,0,0,0,2.91-.046,1.888,1.888,0,0,1,1.571-.277c1.247.185,2.679,2.4,2.679,2.4A6.476,6.476,0,0,1,9,10.639ZM14.728,2a2.938,2.938,0,0,1,2.956,2.91,2.977,2.977,0,0,1-2.956,2.956,2.938,2.938,0,0,1-2.91-2.956A2.9,2.9,0,0,1,14.728,2Z" fill="#bfbfbf" fill-rule="evenodd"/>
  </g>
</svg>
