<svg id="noun_Question_3013476" xmlns="http://www.w3.org/2000/svg" width="12" height="12" viewBox="0 0 12 12">
  <path id="noun_Question_3013476-2" data-name="noun_Question_3013476" d="M8,2a6,6,0,1,0,6,6A6,6,0,0,0,8,2Zm0,9.515a.735.735,0,1,1,.735-.735A.735.735,0,0,1,8,11.515ZM9.168,8.348c-.355.355-.556.572-.556.914v.171a.122.122,0,0,1-.122.123H7.51a.122.122,0,0,1-.122-.123V9.262A2.426,2.426,0,0,1,8.3,7.482c.355-.355.555-.573.555-.915a.857.857,0,1,0-1.714,0,.122.122,0,0,1-.122.122h-.98a.122.122,0,0,1-.122-.122,2.081,2.081,0,1,1,4.162,0A2.428,2.428,0,0,1,9.168,8.348Z" transform="translate(-2 -2)" fill="#1a1a1a"/>
</svg>
