<svg xmlns="http://www.w3.org/2000/svg" width="8.675" height="8.665" viewBox="0 0 8.675 8.665">
  <g id="noun_Close_340612" transform="translate(-21.003 -21.075)">
    <line id="Линия_9" data-name="Линия 9" x2="7.838" y2="7.838" transform="translate(21.127 21.734)" fill="#1a1a1a"/>
    <path id="Контур_12737" data-name="Контур 12737" d="M29.291,29.74a.449.449,0,0,1-.317-.132L21.2,21.83a.449.449,0,0,1,.634-.634l7.778,7.778a.449.449,0,0,1-.317.766Z" transform="translate(-0.061)" fill="#f74141"/>
    <line id="Линия_10" data-name="Линия 10" y1="7.838" x2="7.838" transform="translate(21.127 21.734)" fill="#1a1a1a"/>
    <path id="Контур_12738" data-name="Контур 12738" d="M21.451,29.74a.449.449,0,0,1-.317-.766L28.912,21.2a.449.449,0,0,1,.634.634l-7.778,7.778A.449.449,0,0,1,21.451,29.74Z" transform="translate(0 0)" fill="#f74141"/>
  </g>
</svg>
