<svg id="star" xmlns="http://www.w3.org/2000/svg" width="16" height="16" viewBox="0 0 16 16">
  <path id="Контур_12775" data-name="Контур 12775" d="M8.64,4.26l1.38,2.79.23.5.5.075,3.08.445-2.19,2.15-.375.365.09.5.525,3.065L9.125,12.7l-.485-.2-.465.245L5.42,14.17l.5-3.065.09-.5-.37-.385L3.43,8.045,6.51,7.6l.5-.075.23-.5L8.64,4.26M8.64,2,6.365,6.61,1.28,7.345l3.68,3.59L4.09,16l4.55-2.39L13.19,16l-.87-5.065L16,7.35l-5.085-.74Z" transform="translate(-0.64 -1)" fill="#efdd30"/>
  <rect id="_Transparent_Rectangle_" data-name="&lt;Transparent Rectangle&gt;" width="16" height="16" fill="none"/>
</svg>
