<svg id="star" xmlns="http://www.w3.org/2000/svg" width="24" height="24" viewBox="0 0 24 24">
  <path id="Контур_12775" data-name="Контур 12775" d="M12.32,5.39l2.07,4.185.345.75.75.112,4.62.667L16.82,14.33l-.562.548.135.75.787,4.6-4.133-2.167-.727-.307-.7.368L7.49,20.255l.75-4.6.135-.75L7.82,14.33,4.5,11.068l4.62-.668.75-.112.345-.75,2.1-4.148m0-3.39L8.907,8.915l-7.627,1.1L6.8,15.4,5.5,23l6.825-3.585L19.145,23l-1.3-7.6,5.52-5.377-7.628-1.11Z" transform="translate(-0.32 -0.5)" fill="#efdd30"/>
  <rect id="_Transparent_Rectangle_" data-name="&lt;Transparent Rectangle&gt;" width="24" height="24" fill="none"/>
  <path id="Контур_12843" data-name="Контур 12843" d="M12,3.2V18.607L6.732,20.831,8.119,14.28l-5-4.1,7.023-1.506Z" fill="#efdd30"/>
</svg>
