<svg xmlns="http://www.w3.org/2000/svg" width="17" height="16" viewBox="0 0 17 16">
  <g id="noun_triangle_2692142" transform="translate(48.906 73.625) rotate(180)">
    <g id="Прямоугольник_182" data-name="Прямоугольник 182" transform="translate(31.906 57.625)" fill="#fff" stroke="#e0e0e0" stroke-width="1">
      <rect width="17" height="16" rx="4" stroke="none"/>
      <rect x="0.5" y="0.5" width="16" height="15" rx="3.5" fill="none"/>
    </g>
    <path id="Контур_4330" data-name="Контур 4330" d="M57.316,82.315H52.7L55.009,78.7Z" transform="translate(-14.604 -14.881)" fill="#1a1a1a"/>
    <g id="Сгруппировать_4290" data-name="Сгруппировать 4290" transform="translate(37.906 63.625)">
      <path id="Контур_4331" data-name="Контур 4331" d="M42.728,67.3H38.655c-.187,0-.378-.01-.565,0h-.008l.153.242.231-.366.555-.879.672-1.063q.29-.458.578-.915c.094-.149.2-.295.283-.448l0-.006h-.305l.231.366.555.879.672,1.063q.29.458.578.915c.094.149.184.3.283.448l0,.006a.191.191,0,0,0,.242.058.155.155,0,0,0,.064-.22l-.231-.366-.555-.879-.672-1.063q-.29-.458-.578-.915c-.094-.149-.184-.3-.283-.448l0-.006a.188.188,0,0,0-.305,0l-.231.366-.555.879-.672,1.063q-.29.458-.578.915c-.094.149-.193.3-.283.448l0,.006a.163.163,0,0,0,.153.242h4.073c.188,0,.377.005.565,0h.008a.171.171,0,0,0,.177-.161A.175.175,0,0,0,42.728,67.3Z" transform="translate(-37.906 -63.625)" fill="#1a1a1a"/>
    </g>
  </g>
</svg>
